<svg width="300" height="304" viewBox="0 0 300 304" fill="none" xmlns="http://www.w3.org/2000/svg">
<ellipse cx="150" cy="148" rx="150" ry="147.384" fill="black"/>
<path d="M105.664 221.953C98.5677 221.953 92.0247 220.13 86.0352 216.484C80.1107 212.839 75.3255 207.988 71.6797 201.934C68.099 195.814 66.3086 189.108 66.3086 181.816L66.5039 118.438C66.5039 111.016 68.2943 104.342 71.875 98.418C75.3906 92.4284 80.1432 87.6432 86.1328 84.0625C92.1224 80.4167 98.6328 78.5938 105.664 78.5938C112.956 78.5938 119.499 80.3841 125.293 83.9648C131.152 87.5456 135.84 92.3633 139.355 98.418C142.936 104.408 144.727 111.081 144.727 118.438L144.922 181.816C144.922 189.108 143.164 195.781 139.648 201.836C136.068 207.956 131.315 212.839 125.391 216.484C119.466 220.13 112.891 221.953 105.664 221.953ZM105.664 197.832C109.701 197.832 113.216 196.204 116.211 192.949C119.206 189.629 120.703 185.918 120.703 181.816L120.508 118.438C120.508 114.01 119.108 110.267 116.309 107.207C113.509 104.147 109.961 102.617 105.664 102.617C101.562 102.617 98.0469 104.115 95.1172 107.109C92.1875 110.104 90.7227 113.88 90.7227 118.438V181.816C90.7227 186.178 92.1875 189.954 95.1172 193.145C98.0469 196.27 101.562 197.832 105.664 197.832ZM194.043 221.953C186.947 221.953 180.404 220.13 174.414 216.484C168.49 212.839 163.737 207.988 160.156 201.934C156.641 195.814 154.883 189.108 154.883 181.816V172.637C154.883 171.921 155.208 171.562 155.859 171.562H178.32C178.841 171.562 179.102 171.921 179.102 172.637V181.816C179.102 186.178 180.566 189.954 183.496 193.145C186.426 196.27 189.941 197.832 194.043 197.832C198.21 197.832 201.758 196.237 204.688 193.047C207.617 189.792 209.082 186.048 209.082 181.816C209.082 176.934 205.892 172.669 199.512 169.023C198.47 168.372 197.103 167.591 195.41 166.68C193.783 165.703 191.829 164.596 189.551 163.359C187.272 162.122 185.059 160.918 182.91 159.746C180.762 158.509 178.678 157.337 176.66 156.23C169.368 151.934 163.932 146.562 160.352 140.117C156.836 133.607 155.078 126.315 155.078 118.242C155.078 110.82 156.901 104.115 160.547 98.125C164.193 92.2005 168.945 87.513 174.805 84.0625C180.729 80.5469 187.142 78.7891 194.043 78.7891C201.139 78.7891 207.65 80.5469 213.574 84.0625C219.499 87.6432 224.219 92.3958 227.734 98.3203C231.315 104.245 233.105 110.885 233.105 118.242V134.648C233.105 135.169 232.845 135.43 232.324 135.43H209.863C209.342 135.43 209.082 135.169 209.082 134.648L208.887 118.242C208.887 113.555 207.422 109.746 204.492 106.816C201.562 103.887 198.079 102.422 194.043 102.422C189.941 102.422 186.426 103.984 183.496 107.109C180.566 110.234 179.102 113.945 179.102 118.242C179.102 122.604 180.013 126.25 181.836 129.18C183.724 132.109 187.142 134.909 192.09 137.578C192.611 137.839 193.815 138.49 195.703 139.531C197.591 140.573 199.674 141.745 201.953 143.047C204.297 144.284 206.413 145.423 208.301 146.465C210.189 147.441 211.328 148.027 211.719 148.223C218.359 151.934 223.6 156.491 227.441 161.895C231.348 167.298 233.301 173.939 233.301 181.816C233.301 189.434 231.543 196.27 228.027 202.324C224.447 208.379 219.694 213.164 213.77 216.68C207.845 220.195 201.27 221.953 194.043 221.953Z" fill="white"/>
</svg>
